<?xml version="1.0" encoding="utf-8"?>
<!-- Generator: Adobe Illustrator 22.1.0, SVG Export Plug-In . SVG Version: 6.00 Build 0)  -->
<svg version="1.1" id="Layer_1" xmlns="http://www.w3.org/2000/svg" xmlns:xlink="http://www.w3.org/1999/xlink" x="0px" y="0px"
	 viewBox="0 0 34 42" style="enable-background:new 0 0 34 42;" xml:space="preserve">
<style type="text/css">
	.st0{fill:#FFFFFF;}
</style>
<title>uppa_new_logo</title>
<path class="st0" d="M34,29.1c0-1-0.7-1.8-1.7-1.9c0,0,0,0-0.1,0c-0.9,0-1.8,0.7-1.8,1.6c0,0,0,0.1,0,0.1c0,0.2,0.1,0.5,0.4,0.5
	s0.4-0.1,0.5-0.5c0-0.5,0.5-0.9,1-0.9c0.5,0,0.9,0.4,0.9,1.1c0,1.1-0.9,1.8-2.5,1.8h-1.5l-3.3-9.1c-0.1-0.3-0.2-0.5-0.6-0.5h-4.3
	c-0.2,0-0.4,0.2-0.4,0.4c0,0,0,0,0,0c0,0.2,0.2,0.4,0.5,0.4c1.1,0.2,1.8,0.5,1.4,1.5l-4.7,12.1c-0.4,1-1.3,1.7-2.3,1.7
	c-0.2,0-0.4,0.2-0.4,0.4c0,0.2,0.2,0.4,0.4,0.4c0,0,0,0,0,0H20c0.2,0,0.4-0.2,0.4-0.4c0,0,0,0,0,0c0-0.2-0.2-0.3-0.5-0.4
	c-1.4-0.2-2.1-0.5-1.6-1.7l1.6-4.1h6.3l1.5,4.1c0.5,1.2-0.5,1.5-1.6,1.7c-0.3,0-0.5,0.2-0.5,0.4s0.2,0.4,0.5,0.4H33
	c0.3,0,0.5-0.2,0.5-0.4s-0.2-0.4-0.5-0.4c-1.1,0-2-0.8-2.2-1.9l-1.4-3.9h1.2C33.1,31.6,34,30.4,34,29.1z M20.3,30.8l2.9-7.6l2.8,7.6
	H20.3z"/>
<path class="st0" d="M8.2,21.3H1c-0.3,0-0.4,0.2-0.4,0.4S0.8,22,1,22.1c0.8,0.3,1.6,0.6,1.6,1.6v12.2c0,1-0.8,1.3-1.6,1.6
	c-0.3,0.1-0.5,0.2-0.5,0.5s0.2,0.4,0.4,0.4h6.2c0.3,0,0.4-0.2,0.4-0.4s-0.2-0.4-0.5-0.5c-0.8-0.3-1.6-0.6-1.6-1.6V22.1h2.1
	c3.1,0,5.5,1.8,5.5,5.9c0,3.3-1.7,4.8-3.6,4.8c-1.3,0-2.1-0.7-2.1-1.7c0-0.7,0.4-1.1,0.9-1.1c0.5,0,0.9,0.3,0.9,0.8
	c0.1,0.3,0.2,0.4,0.4,0.4c0.2,0,0.4-0.2,0.4-0.4c0,0,0,0,0,0c0-0.9-0.8-1.6-1.7-1.6c0,0,0,0,0,0c-1,0-1.8,0.9-1.8,1.9c0,0,0,0,0,0
	c0,1.2,0.8,2.5,3.3,2.5c3.3,0.2,6.1-2.3,6.2-5.6c0-0.2,0-0.3,0-0.5C16.2,23.8,13.4,21.3,8.2,21.3z"/>
<path class="st0" d="M2.1,3.4v7.2c0,4.8,2.3,7.8,7.1,7.8c4.1,0,6-2.6,6.4-5.9h5.5V16c0,1-0.8,1.3-1.6,1.6C19.2,17.6,19,17.8,19,18
	s0.2,0.4,0.5,0.4h6.1c0.3,0,0.5-0.2,0.5-0.4s-0.2-0.4-0.5-0.5C24.8,17.2,24,17,24,16v-3.5h1.7c4.5,0,8.3-1.6,8.3-5.7
	C34,3.3,31.1,1,26.5,1h-7C19.2,1,19,1.2,19,1.4s0.2,0.4,0.5,0.4c0.8,0.3,1.6,0.6,1.6,1.6v8.3h-5.4c0-0.3,0-0.6,0-0.9V3.4
	c0-1,0.9-1.3,1.9-1.6C17.8,1.7,18,1.7,18,1.4C18,1.2,17.8,1,17.6,1h-4.7c-0.2,0-0.4,0.1-0.4,0.4c0,0.3,0.2,0.4,0.4,0.4
	c1,0.3,1.9,0.6,1.9,1.6v7.5c0,0.3,0,0.6,0,0.8h-2.4c-1.7,0-3.3-0.2-3.3-1.7c0-0.7,0.4-1.2,1-1.2s0.9,0.4,1,0.9s0.2,0.5,0.4,0.5
	S12.1,10,12,9.7c-0.1-1-1.1-1.7-2.1-1.6C8.9,8.3,8.3,9.1,8.3,10c0,1.3,0.7,2.5,3.9,2.5h2.5c-0.4,3.1-2.2,5-4.9,5
	c-3,0-4.8-2.4-4.8-6.3V3.4c0-1,0.8-1.3,1.6-1.6C6.9,1.7,7,1.7,7,1.4S6.9,1,6.6,1H0.4C0.2,1,0,1.2,0,1.4s0.2,0.4,0.5,0.4
	C1.3,2.1,2.1,2.4,2.1,3.4z M24,1.8h1.6c2.7,0,5.4,1.5,5.4,4.8c0,3-1.6,5-5.6,5H24V1.8z"/>
</svg>
